<svg xmlns="http://www.w3.org/2000/svg" version="1.1" xmlns:xlink="http://www.w3.org/1999/xlink" xmlns:svgjs="http://svgjs.dev/svgjs" width="1500" height="795" viewBox="0 0 1500 795"><g transform="matrix(1,0,0,1,-0.9078607006589436,-0.5761237357498885)"><svg viewBox="0 0 396 210" data-background-color="#fdfdfd" preserveAspectRatio="xMidYMid meet" height="795" width="1500" xmlns="http://www.w3.org/2000/svg" xmlns:xlink="http://www.w3.org/1999/xlink"><g id="tight-bounds" transform="matrix(1,0,0,1,0.23985565554391997,0.15218362831129184)"><svg viewBox="0 0 395.52 209.69563274337742" height="209.69563274337742" width="395.52"><g><svg viewBox="0 0 395.52 209.69563274337742" height="209.69563274337742" width="395.52"><g transform="matrix(1,0,0,1,0,137.45250770497148)"><svg viewBox="0 0 395.52 72.24312503840595" height="72.24312503840595" width="395.52"><g id="textblocktransform"><svg viewBox="0 0 395.52 72.24312503840595" height="72.24312503840595" width="395.52" id="textblock"><g><svg viewBox="0 0 395.52 72.24312503840595" height="72.24312503840595" width="395.52"><g transform="matrix(1,0,0,1,0,0)"><svg width="395.52" viewBox="1.9021499999999993 -37.01278440878058 328.81345999999996 60.05895440878058" height="72.24312503840595" data-palette-color="#000000"><path d="M3.386 23.046l0.845-23.884c0.041-0.978 0.04-1.883-0.003-2.713-0.049-0.822-0.125-1.56-0.228-2.211v0c-0.284-1.798-0.651-3.076-1.101-3.835-0.458-0.765-0.79-1.266-0.997-1.503v0l4.177-2.462c0.427 0.398 0.814 0.904 1.161 1.518 0.347 0.613 0.6 1.427 0.76 2.441v0c0.041 0.257 0.076 0.568 0.107 0.935 0.023 0.361 0.05 0.741 0.079 1.141 0.028 0.394 0.046 0.782 0.053 1.166 0.013 0.383 0.021 0.692 0.025 0.928v0l0.407-1.522c0.347-1.391 0.779-2.57 1.295-3.535 0.516-0.966 1.101-1.767 1.757-2.404 0.648-0.642 1.353-1.132 2.117-1.468 0.77-0.338 1.577-0.573 2.419-0.706v0c1.179-0.186 2.209-0.116 3.091 0.211 0.889 0.332 1.654 0.839 2.295 1.52 0.641 0.682 1.162 1.484 1.564 2.406 0.395 0.923 0.673 1.891 0.834 2.905v0c0.365 2.311 0.404 4.526 0.117 6.643-0.28 2.116-0.89 4.025-1.83 5.726-0.933 1.7-2.187 3.116-3.763 4.249-1.575 1.14-3.452 1.881-5.632 2.225v0c-0.652 0.103-1.304 0.162-1.956 0.178-0.645 0.021-1.254 0.009-1.828-0.036v0l-0.388 10.236zM9.28 7.031c0.513 0.088 1.03 0.131 1.549 0.13 0.52-0.001 0.99-0.035 1.412-0.101v0c1.468-0.232 2.641-0.842 3.517-1.831 0.883-0.99 1.539-2.18 1.967-3.571 0.436-1.385 0.677-2.874 0.723-4.467 0.052-1.594-0.033-3.093-0.255-4.496v0c-0.227-1.436-0.589-2.408-1.088-2.915-0.498-0.502-1.171-0.686-2.02-0.552v0c-0.843 0.133-1.58 0.634-2.213 1.503-0.632 0.869-1.183 2.039-1.653 3.511-0.469 1.478-0.857 3.21-1.164 5.195-0.3 1.991-0.533 4.151-0.698 6.478v0zM28.23 0.234c-0.309-2.326-0.296-4.557 0.039-6.694 0.334-2.143 0.977-4.061 1.929-5.754 0.959-1.694 2.227-3.104 3.807-4.228 1.586-1.125 3.476-1.834 5.669-2.125v0c2.551-0.339 4.428-0.104 5.632 0.705 1.203 0.802 1.913 2.022 2.131 3.661v0c0.191 1.441-0.002 2.798-0.579 4.072-0.577 1.274-1.471 2.442-2.682 3.504-1.205 1.054-2.69 1.975-4.456 2.76-1.759 0.785-3.726 1.369-5.9 1.752v0c0.006 0.302 0.029 0.601 0.069 0.899 0.039 0.291 0.075 0.568 0.11 0.833v0c0.204 1.533 0.672 2.55 1.404 3.052 0.733 0.508 1.638 0.69 2.716 0.547v0c0.654-0.087 1.385-0.285 2.191-0.594 0.806-0.309 1.586-0.644 2.338-1.006v0c0.846-0.415 1.732-0.882 2.658-1.403v0l1.599 3.379c-0.918 0.586-1.894 1.133-2.929 1.64v0c-0.869 0.445-1.869 0.867-3 1.266-1.131 0.399-2.284 0.677-3.46 0.833v0c-1.54 0.205-2.862 0.148-3.967-0.169-1.105-0.317-2.029-0.817-2.772-1.498-0.737-0.689-1.309-1.504-1.716-2.445-0.415-0.947-0.692-1.942-0.831-2.987zM39.046-14.64c-0.753 0.1-1.428 0.415-2.023 0.945-0.595 0.53-1.098 1.205-1.507 2.026-0.409 0.821-0.743 1.746-1.003 2.776-0.259 1.036-0.452 2.094-0.577 3.174v0c1.461-0.295 2.714-0.704 3.761-1.226 1.04-0.522 1.894-1.109 2.561-1.763 0.66-0.653 1.137-1.314 1.431-1.985 0.294-0.671 0.402-1.301 0.324-1.889v0c-0.1-0.753-0.383-1.314-0.849-1.683-0.467-0.375-1.173-0.5-2.118-0.375zM67.809-19.633l-2.346 4.887c-0.475-0.41-0.957-0.739-1.447-0.986-0.496-0.24-1.122-0.318-1.877-0.235v0c-0.457 0.051-0.884 0.313-1.282 0.786-0.396 0.48-0.758 1.093-1.084 1.84-0.333 0.748-0.632 1.596-0.895 2.544-0.258 0.941-0.469 1.883-0.633 2.827v0l-1.02 12.317-5.516 0.611 1.142-12.672c0.086-0.975 0.127-1.879 0.122-2.71-0.011-0.824-0.052-1.564-0.125-2.22v0c-0.2-1.809-0.508-3.103-0.923-3.882-0.422-0.785-0.731-1.301-0.926-1.548v0l4.287-2.265c0.408 0.418 0.772 0.941 1.089 1.569 0.324 0.628 0.543 1.452 0.656 2.473v0c0.076 0.689 0.101 1.458 0.075 2.306-0.02 0.847-0.022 1.652-0.005 2.415v0c0.359-3.058 1.015-5.371 1.969-6.939 0.96-1.569 2.357-2.454 4.192-2.657v0c1.113-0.123 2.035-0.034 2.767 0.267 0.731 0.301 1.325 0.725 1.78 1.272zM87.599-29.68l-3.929 2.139c-0.22-0.61-0.526-1.165-0.919-1.667-0.391-0.495-0.982-0.708-1.772-0.639v0c-1.016 0.088-1.787 0.463-2.311 1.125-0.525 0.655-0.735 1.59-0.629 2.805v0c0.04 0.465 0.134 1.039 0.281 1.722 0.14 0.684 0.339 1.362 0.598 2.036v0l5.769-0.502-0.291 4.04-5.579 0.486-2.047 19.26c-0.201 1.838-0.577 3.403-1.127 4.696-0.55 1.293-1.247 2.431-2.092 3.414-0.845 0.984-1.818 1.871-2.92 2.663-1.109 0.792-2.324 1.594-3.645 2.405v0l-2.249-3.578c1.039-0.592 1.943-1.17 2.71-1.732 0.761-0.561 1.411-1.163 1.951-1.806 0.54-0.643 0.972-1.369 1.296-2.18 0.331-0.805 0.551-1.741 0.659-2.808v0l2.094-19.867-4.293 0.374-0.347-3.985 5.479-0.477c-0.486-0.587-0.836-1.262-1.05-2.026-0.213-0.758-0.348-1.465-0.405-2.123v0c-0.103-1.182 0.052-2.246 0.464-3.192 0.412-0.953 1.004-1.767 1.775-2.444 0.77-0.683 1.691-1.218 2.761-1.605 1.076-0.395 2.222-0.645 3.438-0.751v0c1.813-0.158 3.193 0.17 4.141 0.984 0.947 0.808 1.677 1.885 2.189 3.233zM87.233-18.583c-0.048-0.658-0.119-1.305-0.213-1.94-0.1-0.641-0.214-1.137-0.339-1.489v0l4.6-1.531c0.419 0.698 0.728 1.494 0.927 2.389 0.199 0.894 0.328 1.737 0.386 2.529v0c0.084 1.15 0.009 2.262-0.227 3.335-0.242 1.081-0.504 2.153-0.787 3.216-0.283 1.064-0.543 2.115-0.781 3.156-0.237 1.047-0.316 2.112-0.237 3.196v0c0.058 0.791 0.293 1.442 0.705 1.953 0.419 0.517 1.14 0.739 2.164 0.664v0c0.884-0.065 1.727-0.514 2.528-1.349 0.801-0.841 1.526-1.887 2.177-3.137 0.656-1.258 1.201-2.632 1.633-4.121 0.439-1.483 0.743-2.909 0.909-4.278v0l0.951-7.96 5.525-0.405-1.701 12.628c-0.13 0.965-0.208 1.813-0.235 2.544-0.027 0.731-0.016 1.425 0.033 2.083v0c0.118 1.616 0.423 2.85 0.913 3.703 0.491 0.86 0.938 1.539 1.343 2.037v0l-4.368 2.105c-0.533-0.522-0.986-1.181-1.358-1.976-0.373-0.802-0.598-1.731-0.676-2.788v0c-0.034-0.459-0.041-1.02-0.023-1.683 0.018-0.663 0.046-1.427 0.082-2.292v0l-0.693 2.036c-0.824 2.347-1.993 4.137-3.506 5.371-1.513 1.241-3.257 1.933-5.232 2.078v0c-2.174 0.159-3.803-0.269-4.887-1.286-1.083-1.01-1.693-2.436-1.828-4.277v0c-0.094-1.283-0.013-2.546 0.244-3.788 0.256-1.249 0.541-2.47 0.854-3.663 0.306-1.199 0.59-2.386 0.852-3.562 0.261-1.182 0.349-2.348 0.265-3.498zM147.694-20.328c0.051 1.286-0.062 2.561-0.34 3.827-0.284 1.265-0.609 2.483-0.977 3.651-0.361 1.175-0.687 2.302-0.977 3.381-0.284 1.085-0.407 2.124-0.368 3.117v0c0.026 0.659 0.086 1.424 0.181 2.295 0.101 0.87 0.25 1.681 0.446 2.434v0l-5.536 0.218c-0.122-0.556-0.202-1.073-0.241-1.551-0.032-0.479-0.057-0.948-0.075-1.409v0c-0.051-1.286 0.046-2.56 0.289-3.824 0.25-1.264 0.531-2.513 0.843-3.746 0.318-1.24 0.601-2.442 0.849-3.606 0.254-1.164 0.361-2.273 0.319-3.325v0c-0.031-0.793-0.231-1.455-0.599-1.988-0.368-0.533-0.998-0.781-1.891-0.746v0c-0.719 0.028-1.445 0.397-2.178 1.106-0.733 0.703-1.408 1.603-2.025 2.702-0.617 1.099-1.163 2.318-1.637 3.657-0.481 1.34-0.809 2.674-0.983 4.002v0l-1.374 9.071-5.546 0.219 1.987-12.558c0.155-0.967 0.265-1.905 0.33-2.815 0.064-0.91 0.087-1.611 0.067-2.104v0c-0.031-0.793-0.231-1.455-0.599-1.988-0.368-0.533-0.998-0.781-1.891-0.746v0c-0.719 0.028-1.445 0.397-2.178 1.106-0.733 0.703-1.418 1.604-2.055 2.703-0.631 1.099-1.183 2.328-1.656 3.688-0.474 1.353-0.801 2.694-0.982 4.022v0l-1.376 9.021-5.546 0.219 2.037-12.56c0.155-0.967 0.26-1.865 0.314-2.694 0.048-0.823 0.058-1.564 0.033-2.223v0c-0.072-1.819-0.287-3.131-0.646-3.938-0.366-0.813-0.637-1.349-0.814-1.609v0l4.436-1.956c0.378 0.445 0.703 0.993 0.976 1.642 0.279 0.65 0.439 1.487 0.479 2.513v0c0.027 0.693-0.003 1.438-0.092 2.236-0.082 0.791-0.142 1.567-0.178 2.329v0l0.665-1.908c0.803-2.307 1.915-4.052 3.336-5.236 1.421-1.177 3.025-1.801 4.811-1.871v0c1.945-0.077 3.441 0.375 4.486 1.355 1.046 0.986 1.637 2.334 1.771 4.043v0c1.697-3.83 4.244-5.812 7.642-5.945v0c2.072-0.082 3.649 0.4 4.73 1.444 1.082 1.052 1.66 2.5 1.733 4.345zM151.435-9.455c-0.016-2.347 0.276-4.559 0.875-6.636 0.599-2.084 1.477-3.907 2.634-5.468 1.163-1.561 2.598-2.801 4.305-3.719 1.714-0.918 3.677-1.385 5.891-1.399v0c2.573-0.017 4.406 0.451 5.499 1.403 1.093 0.946 1.645 2.246 1.656 3.899v0c0.01 1.453-0.351 2.776-1.083 3.967-0.732 1.192-1.765 2.239-3.099 3.141-1.327 0.896-2.916 1.623-4.766 2.182-1.843 0.559-3.867 0.893-6.073 1.001v0c-0.031 0.3-0.046 0.6-0.044 0.9 0.002 0.293 0.004 0.573 0.005 0.84v0c0.01 1.547 0.347 2.614 1.012 3.203 0.664 0.596 1.539 0.89 2.626 0.883v0c0.66-0.004 1.409-0.109 2.248-0.315 0.839-0.206 1.654-0.441 2.445-0.707v0c0.891-0.306 1.829-0.659 2.813-1.059v0l1.164 3.553c-0.984 0.467-2.021 0.887-3.112 1.261v0c-0.918 0.333-1.963 0.626-3.134 0.881-1.172 0.255-2.351 0.386-3.537 0.393v0c-1.553 0.01-2.858-0.211-3.915-0.664-1.056-0.453-1.91-1.064-2.562-1.833-0.645-0.776-1.111-1.656-1.398-2.64-0.293-0.991-0.443-2.014-0.45-3.067zM164.025-22.86c-0.76 0.005-1.468 0.233-2.125 0.684-0.657 0.451-1.24 1.058-1.748 1.822-0.508 0.763-0.956 1.64-1.343 2.629-0.387 0.996-0.71 2.021-0.969 3.077v0c1.486-0.11 2.781-0.359 3.885-0.746 1.097-0.387 2.018-0.864 2.761-1.429 0.736-0.565 1.292-1.162 1.668-1.791 0.376-0.629 0.562-1.24 0.557-1.834v0c-0.005-0.76-0.216-1.352-0.632-1.776-0.416-0.431-1.101-0.643-2.054-0.636zM205.361-32.081l-4.152 1.667c-0.148-0.631-0.387-1.219-0.717-1.762-0.331-0.537-0.893-0.817-1.686-0.841v0c-1.02-0.03-1.828 0.252-2.426 0.848-0.598 0.589-0.915 1.493-0.952 2.713v0c-0.014 0.466 0.012 1.047 0.078 1.743 0.059 0.695 0.178 1.393 0.358 2.091v0l5.787 0.173-0.759 3.979-5.597-0.167-4.276 18.891c-0.414 1.802-0.969 3.313-1.666 4.532-0.697 1.22-1.522 2.269-2.475 3.148-0.953 0.879-2.023 1.647-3.211 2.305-1.194 0.658-2.494 1.313-3.9 1.964v0l-1.817-3.816c1.101-0.467 2.066-0.935 2.893-1.404 0.821-0.469 1.537-0.991 2.148-1.567 0.611-0.575 1.124-1.247 1.541-2.014 0.423-0.761 0.75-1.665 0.981-2.712v0l4.394-19.488-4.308-0.129 0.12-3.998 5.497 0.164c-0.414-0.639-0.683-1.351-0.807-2.135-0.124-0.777-0.175-1.496-0.155-2.155v0c0.035-1.186 0.313-2.225 0.833-3.117 0.52-0.898 1.203-1.638 2.047-2.22 0.845-0.588 1.821-1.013 2.93-1.273 1.115-0.267 2.282-0.382 3.502-0.345v0c1.819 0.054 3.152 0.541 3.998 1.46 0.846 0.912 1.446 2.067 1.797 3.465zM214.2-25.561c1.579 0.068 2.888 0.354 3.927 0.859 1.032 0.511 1.852 1.167 2.458 1.967 0.613 0.8 1.031 1.702 1.255 2.706 0.218 0.997 0.304 2.025 0.259 3.084v0c-0.101 2.371-0.5 4.583-1.195 6.635-0.702 2.052-1.662 3.829-2.881 5.331-1.218 1.496-2.713 2.653-4.482 3.472-1.77 0.812-3.76 1.17-5.972 1.075v0c-1.552-0.066-2.844-0.352-3.877-0.856-1.033-0.505-1.856-1.157-2.468-1.958-0.606-0.807-1.028-1.709-1.266-2.706-0.244-1.005-0.343-2.033-0.298-3.086v0c0.1-2.345 0.501-4.539 1.203-6.584 0.702-2.052 1.669-3.829 2.9-5.331 1.239-1.502 2.733-2.669 4.484-3.502 1.757-0.832 3.741-1.201 5.953-1.106zM212.898-21.803c-1.092-0.047-2.078 0.365-2.956 1.234-0.878 0.877-1.636 1.985-2.274 3.326-0.631 1.341-1.131 2.798-1.498 4.37-0.361 1.573-0.571 3.048-0.63 4.427v0c-0.066 1.552 0.201 2.638 0.801 3.258 0.601 0.62 1.444 0.953 2.53 0.999v0c1.086 0.046 2.071-0.365 2.956-1.235 0.878-0.87 1.633-1.975 2.263-3.316 0.638-1.347 1.141-2.814 1.51-4.4 0.361-1.586 0.571-3.055 0.629-4.407v0c0.066-1.552-0.201-2.638-0.801-3.257-0.601-0.62-1.444-0.953-2.53-0.999zM244.481-21.56l-3.169 4.399c-0.395-0.487-0.812-0.896-1.251-1.225-0.446-0.324-1.048-0.511-1.807-0.561v0c-0.459-0.03-0.925 0.152-1.399 0.548-0.474 0.403-0.938 0.943-1.391 1.621-0.459 0.678-0.902 1.46-1.329 2.347-0.419 0.881-0.793 1.771-1.119 2.672v0l-3.169 11.946-5.538-0.368 3.351-12.275c0.257-0.945 0.455-1.827 0.597-2.646 0.134-0.813 0.223-1.549 0.267-2.207v0c0.121-1.816 0.045-3.144-0.226-3.984-0.278-0.847-0.491-1.409-0.64-1.686v0l4.618-1.477c0.329 0.483 0.594 1.062 0.797 1.737 0.209 0.675 0.279 1.525 0.211 2.549v0c-0.046 0.692-0.157 1.453-0.332 2.283-0.169 0.831-0.312 1.623-0.429 2.377v0c0.891-2.947 1.943-5.109 3.157-6.485 1.221-1.375 2.752-2.002 4.595-1.879v0c1.118 0.074 2.01 0.324 2.676 0.749 0.667 0.425 1.176 0.947 1.53 1.565zM279.265-19.845c0.007-0.066-0.096 0.222-0.306 0.864-0.211 0.642-0.493 1.492-0.846 2.55-0.352 1.057-0.733 2.229-1.141 3.514-0.415 1.285-0.799 2.557-1.152 3.815-0.359 1.257-0.674 2.412-0.945 3.464-0.265 1.052-0.425 1.857-0.481 2.415v0c-0.081 0.823-0.117 1.59-0.107 2.3 0.009 0.718 0.031 1.417 0.064 2.097 0.033 0.687 0.055 1.369 0.069 2.046 0.019 0.685-0.009 1.406-0.084 2.163v0c-0.179 1.805-0.574 3.299-1.187 4.485-0.619 1.178-1.416 2.094-2.392 2.747-0.975 0.647-2.126 1.069-3.452 1.266-1.333 0.203-2.789 0.226-4.368 0.07v0c-0.949-0.094-1.89-0.294-2.825-0.601-0.928-0.306-1.821-0.653-2.68-1.039-0.853-0.386-1.65-0.79-2.393-1.211-0.735-0.421-1.369-0.789-1.9-1.103v0l2.33-3.95c0.597 0.327 1.242 0.682 1.935 1.066 0.692 0.383 1.4 0.742 2.124 1.075 0.73 0.34 1.481 0.639 2.253 0.896 0.772 0.257 1.536 0.423 2.292 0.498v0c1.539 0.152 2.785-0.22 3.738-1.117 0.954-0.904 1.5-2.059 1.639-3.465v0c0.03-0.299 0.051-0.621 0.066-0.969 0.021-0.346 0.037-0.743 0.048-1.191 0.011-0.448 0.036-0.968 0.074-1.56 0.045-0.592 0.11-1.312 0.194-2.162v0c0.059-0.597 0.176-1.266 0.349-2.005 0.174-0.746 0.322-1.395 0.444-1.946v0l-1.14 1.968c-1.18 2.174-2.621 3.74-4.323 4.697-1.703 0.964-3.54 1.348-5.511 1.152v0c-2.169-0.215-3.701-0.916-4.595-2.102-0.895-1.181-1.251-2.69-1.069-4.528v0c0.127-1.28 0.416-2.511 0.868-3.692 0.446-1.189 0.932-2.343 1.458-3.463 0.527-1.127 1.01-2.248 1.448-3.364 0.446-1.122 0.726-2.256 0.84-3.404v0c0.065-0.657 0.106-1.306 0.122-1.947 0.011-0.649 0-1.156-0.03-1.521v0l4.794-0.721c0.293 0.759 0.462 1.597 0.505 2.512 0.043 0.915 0.026 1.768-0.052 2.557v0c-0.114 1.148-0.378 2.23-0.794 3.248-0.423 1.023-0.865 2.035-1.325 3.034-0.461 0.999-0.897 1.991-1.31 2.976-0.413 0.991-0.673 2.027-0.78 3.108v0c-0.078 0.789 0.042 1.471 0.361 2.045 0.324 0.581 0.997 0.923 2.019 1.024v0c0.882 0.087 1.79-0.211 2.721-0.896 0.933-0.692 1.826-1.598 2.681-2.719 0.862-1.127 1.633-2.387 2.314-3.781 0.687-1.386 1.229-2.739 1.627-4.059v0l2.298-7.681zM295.812-18.373c1.568 0.196 2.849 0.588 3.844 1.176 0.987 0.594 1.75 1.314 2.289 2.161 0.546 0.848 0.889 1.781 1.031 2.8 0.136 1.011 0.138 2.043 0.006 3.094v0c-0.295 2.355-0.872 4.527-1.732 6.516-0.867 1.988-1.969 3.681-3.306 5.079-1.336 1.392-2.92 2.423-4.751 3.094-1.83 0.665-3.843 0.86-6.039 0.585v0c-1.541-0.193-2.806-0.583-3.794-1.17-0.988-0.587-1.755-1.305-2.301-2.152-0.538-0.853-0.885-1.787-1.04-2.801-0.161-1.021-0.176-2.054-0.046-3.1v0c0.291-2.329 0.87-4.483 1.736-6.464 0.867-1.988 1.975-3.68 3.325-5.077 1.357-1.396 2.942-2.437 4.755-3.124 1.819-0.686 3.827-0.892 6.023-0.617zM294.208-14.734c-1.085-0.136-2.1 0.194-3.046 0.99-0.947 0.802-1.793 1.845-2.538 3.129-0.739 1.285-1.355 2.696-1.85 4.233-0.488 1.538-0.818 2.992-0.989 4.361v0c-0.193 1.541-0.015 2.645 0.533 3.312 0.548 0.667 1.361 1.067 2.44 1.202v0c1.078 0.135 2.094-0.195 3.046-0.99 0.946-0.795 1.788-1.836 2.527-3.12 0.746-1.291 1.367-2.711 1.863-4.262 0.49-1.551 0.818-2.998 0.987-4.341v0c0.193-1.541 0.015-2.645-0.533-3.312-0.548-0.667-1.361-1.067-2.44-1.202zM310.01-11.487c0.099-0.653 0.173-1.299 0.223-1.939 0.044-0.647 0.044-1.156-0.001-1.527v0l4.826-0.472c0.254 0.773 0.378 1.618 0.374 2.534-0.004 0.916-0.066 1.767-0.185 2.552v0c-0.173 1.14-0.493 2.208-0.96 3.202-0.475 1-0.969 1.987-1.481 2.961-0.512 0.974-0.999 1.942-1.462 2.904-0.464 0.968-0.777 1.989-0.94 3.064v0c-0.119 0.784-0.034 1.471 0.254 2.061 0.294 0.597 0.948 0.973 1.964 1.127v0c0.877 0.133 1.798-0.118 2.764-0.754 0.967-0.642 1.907-1.501 2.818-2.577 0.919-1.081 1.754-2.3 2.506-3.656 0.757-1.348 1.369-2.672 1.836-3.969v0l2.692-7.552 5.478 0.83-4.46 11.937c-0.341 0.913-0.605 1.722-0.793 2.428-0.188 0.706-0.331 1.386-0.43 2.039v0c-0.243 1.602-0.22 2.873 0.069 3.813 0.288 0.947 0.574 1.709 0.857 2.285v0l-4.726 1.084c-0.404-0.628-0.699-1.37-0.886-2.228-0.186-0.864-0.199-1.82-0.04-2.869v0c0.069-0.455 0.186-1.003 0.351-1.646 0.165-0.643 0.361-1.381 0.588-2.217v0l-1.127 1.832c-1.324 2.105-2.861 3.592-4.61 4.459-1.751 0.874-3.605 1.163-5.563 0.866v0c-2.155-0.327-3.649-1.106-4.48-2.338-0.832-1.225-1.11-2.751-0.834-4.576v0c0.193-1.272 0.552-2.485 1.078-3.64 0.527-1.161 1.075-2.288 1.646-3.381 0.565-1.101 1.105-2.196 1.62-3.285 0.517-1.095 0.861-2.213 1.034-3.352z" opacity="1" transform="matrix(1,0,0,1,0,0)" fill="#000000" class="wordmark-text-0" data-fill-palette-color="primary" id="text-0"></path></svg></g></svg></g></svg></g></svg></g><g transform="matrix(1,0,0,1,147.5906659191254,0)"><svg viewBox="0 0 100.33866816174918 116.8893763121408" height="116.8893763121408" width="100.33866816174918"><g><svg xmlns="http://www.w3.org/2000/svg" xmlns:xlink="http://www.w3.org/1999/xlink" version="1.1" x="0" y="0" viewBox="11.1 4.1 77.60000000000001 90.4" enable-background="new 0 0 100 100" xml:space="preserve" height="116.8893763121408" width="100.33866816174918" class="icon-icon-0" data-fill-palette-color="accent" id="icon-0"><path d="M44.4 45.8C43.9 45.8 43.3 45.8 42.7 45.7 41 45.6 41 44.8 41 44.7L40.5 44.6 41 44.7 40.5 44.6 40 44.5C40 44.6 39.9 45.2 40.4 45.7 40.9 46.3 41.6 46.6 42.7 46.7 43.4 46.8 44 46.8 44.5 46.8 46 46.8 46.6 46.8 47.2 47.6 48 48.5 48.2 50.6 48.2 51.4H49.3C49.3 51.3 49.2 48.4 48 47 46.9 45.8 45.8 45.8 44.4 45.8" fill="#9b074e" data-fill-palette-color="accent"></path><path d="M33.5 46.4C33.5 46.5 33.4 47.2 34 48S35.7 49.2 37.2 49.3C38.2 49.4 39 49.4 39.8 49.4 41.8 49.4 42.9 49.4 43.9 50.6 45.3 52.3 45.4 56.1 45.4 56.2H46.5C46.5 56 46.4 51.9 44.7 50 43.4 48.5 41.8 48.5 39.8 48.4 39.1 48.4 38.2 48.4 37.3 48.3 36.1 48.2 35.3 47.9 34.9 47.4 34.6 47 34.6 46.6 34.6 46.6z" fill="#9b074e" data-fill-palette-color="accent"></path><path d="M59.4 44.8C59.4 44.9 59.4 45.7 57.7 45.8 57.1 45.9 56.5 45.9 56 45.9 54.6 45.9 53.4 45.9 52.5 47 51.3 48.4 51.2 51.3 51.2 51.4H52.3C52.3 50.7 52.5 48.6 53.3 47.6 53.9 46.9 54.6 46.9 56 46.8 56.5 46.8 57.1 46.8 57.8 46.7 58.9 46.6 59.7 46.3 60.1 45.7 60.6 45.1 60.5 44.5 60.5 44.5z" fill="#9b074e" data-fill-palette-color="accent"></path><path d="M63.1 48.2C62.2 48.3 61.3 48.3 60.6 48.3 58.6 48.3 57 48.3 55.7 49.9 54 51.9 53.9 56 53.9 56.1H55S55.1 52.2 56.5 50.5C57.5 49.4 58.6 49.3 60.6 49.3 61.4 49.3 62.2 49.3 63.2 49.2 64.7 49.1 65.8 48.6 66.4 47.9 67 47.1 66.9 46.4 66.9 46.3L65.8 46.5S65.8 46.9 65.5 47.3C65.1 47.8 64.3 48.1 63.1 48.2" fill="#9b074e" data-fill-palette-color="accent"></path><path d="M74.2 94.5H28.3V66.6H74.2zM29.3 93.5H73.2V67.6H29.3zM64.4 87.4H36.6V70.7H64.4zM37.6 86.4H63.4V71.7H37.6z" fill="#9b074e" data-fill-palette-color="accent"></path><path d="M61.6 65.5H38.9V62.7C38.9 60.6 40.6 59 42.6 59H57.9C60 59 61.6 60.7 61.6 62.7zM39.9 64.5H60.6V62.7C60.6 61.2 59.4 60 57.9 60H42.6C41.1 60 39.9 61.2 39.9 62.7z" fill="#9b074e" data-fill-palette-color="accent"></path><path d="M50.2 33.2H50.5C55.2 33.2 58.4 25.7 58.5 25.3L57.5 24.9C57.5 25 54.3 32.3 50.2 32.1 46 31.9 41.4 24.5 41.4 24.4L40.5 25C40.7 25.4 45.4 32.9 50.2 33.2" fill="#9b074e" data-fill-palette-color="accent"></path><path d="M39.1 33.1L38.4 33.9C41.7 36.7 45.5 37.6 49.2 37.6 56.4 37.6 63 34 63.1 33.9L62.5 33C62.3 33.1 48.2 40.9 39.1 33.1" fill="#9b074e" data-fill-palette-color="accent"></path><path d="M73 16.9L72.1 16.3C72.1 16.4 68.4 21.3 60.6 16.2L60 17C62.9 18.9 65.2 19.5 67.1 19.5 71 19.5 72.9 16.9 73 16.9" fill="#9b074e" data-fill-palette-color="accent"></path><path d="M33.5 19.5C35.4 19.5 37.8 18.9 40.6 17L40 16.1C32.2 21.2 28.7 16.4 28.5 16.2L27.6 16.8C27.7 16.9 29.6 19.5 33.5 19.5" fill="#9b074e" data-fill-palette-color="accent"></path><path d="M88.2 5.9C88.5 5.2 88.6 4.8 88.7 4.6L87.6 4.5C87.4 6.2 70.5 41 49.6 41H49.5C28.8 40.8 12.3 4.5 12.1 4.1L11.1 4.5S11.4 5.1 11.8 6C11.8 6.8 11.8 11.6 13.6 14.4 15.4 17.1 17.9 17.9 18.6 18.1 19.7 19.7 20.8 21.4 22.1 23.1 31.1 35.4 40.6 41.9 49.5 41.9H49.6C61 41.9 70.9 32.2 77.2 24 78.7 22 80.2 20 81.4 18 81.9 17.9 84.6 17.2 86.5 14.3 88.5 11.3 88.3 6 88.3 5.8zM14.6 13.9C13.6 12.4 13.2 10.1 13 8.4 14.1 10.6 15.7 13.5 17.7 16.7 16.8 16.2 15.6 15.4 14.6 13.9M85.6 13.8C84.6 15.3 83.3 16.2 82.4 16.6 84.5 13.3 86.1 10.2 87.2 8 87.1 9.8 86.7 12.2 85.6 13.8" fill="#9b074e" data-fill-palette-color="accent"></path></svg><g></g></g></svg></g><g></g></svg></g><defs></defs></svg><rect width="395.52" height="209.69563274337742" fill="none" stroke="none" visibility="hidden"></rect></g></svg></g></svg>